<svg xmlns="http://www.w3.org/2000/svg" xmlns:xlink="http://www.w3.org/1999/xlink" version="1.1" x="0px" y="0px" viewBox="0 0 100 125" style="enable-background:new 0 0 100 100;" xml:space="preserve"><g><path d="M74.2,2.5h-1.9H51H49H27.7h-1.9H2.5v23.3v1.9V49V51v21.3v1.9v23.3h23.3h1.9H49H51h21.3h1.9h23.3V74.2v-1.9V51V49V27.7v-1.9   V2.5H74.2z M72.3,72.3H51V51h21.3V72.3z M27.7,27.7H49V49H27.7V27.7z M51,4.4h21.3v21.3H51V4.4z M27.7,4.4H49v21.3H27.7V4.4z    M4.4,27.7h21.3V49H4.4V27.7z M4.4,51h21.3v21.3H4.4V51z M25.8,95.6H4.4V74.2h21.3V95.6z M49,95.6H27.7V74.2H49V95.6z M72.3,95.6   H51V74.2h21.3V95.6z M95.6,72.3H74.2V51h21.3V72.3z M95.6,49H74.2V27.7h21.3V49z M74.2,25.8V4.4h21.3v21.3H74.2z"/></g></svg>